<?xml version="1.0" encoding="utf-8"?>
<!-- Generator: Adobe Illustrator 23.0.1, SVG Export Plug-In . SVG Version: 6.00 Build 0)  -->
<svg version="1.1" xmlns="http://www.w3.org/2000/svg" xmlns:xlink="http://www.w3.org/1999/xlink" x="0px" y="0px"
	 viewBox="0 0 1129.26 2219.87" style="enable-background:new 0 0 1129.26 2219.87;" xml:space="preserve">
<style type="text/css">
	.st0{fill:#FFFFFF;}
	.st1{opacity:0.29;fill:#FFFF00;stroke:#C1272D;stroke-width:0.25;stroke-miterlimit:10;}
	.st2{fill:none;stroke:#C1272D;stroke-width:0.25;stroke-miterlimit:10;}
	.st3{fill:none;stroke:#C1272D;stroke-width:19;stroke-miterlimit:10;}
	.st4{fill:#C1272D;}
	.st5{fill:#FFFFFF;stroke:#C1272D;stroke-width:0.25;stroke-miterlimit:10;}
	.st6{font-family:'MyriadPro-Regular';}
	.st7{font-size:95.0006px;}
	.st8{font-size:95px;}
</style>
<!-- <g id="Layer_2">
	<rect x="-10.61" y="-12.13" class="st0" width="1150.48" height="2232"/>
</g> -->
<g id="Layer_1">
	<g>
		<g>
			<path d="M349.1,23.96h13.43v2.37H351.9v7.37h9v2.37h-9v9.76h-2.8V23.96z"/>
			<path d="M366.27,34.79c0-7.07,3.47-11.23,8.4-11.23s8.4,4.17,8.4,11.23c0,7.16-3.47,11.43-8.4,11.43S366.27,41.96,366.27,34.79z
				 M380.16,34.79c0-5.5-2.2-8.76-5.5-8.76s-5.5,3.27-5.5,8.76c0,5.6,2.2,8.96,5.5,8.96S380.16,40.39,380.16,34.79z"/>
			<path d="M387.29,37.56v-13.6h2.83v13.66c0,4.5,1.97,6.13,4.57,6.13c2.63,0,4.63-1.63,4.63-6.13V23.96h2.7v13.6
				c0,6.27-3.07,8.66-7.33,8.66C390.39,46.22,387.29,43.82,387.29,37.56z"/>
			<path d="M407.96,23.96h6.83c4.43,0,7.67,1.6,7.67,6.17c0,4.37-3.23,6.46-7.67,6.46h-4v9.23h-2.83V23.96z M414.39,34.33
				c3.4,0,5.27-1.4,5.27-4.2c0-2.87-1.87-3.9-5.27-3.9h-3.6v8.1H414.39z M416.42,34.36l6.67,11.46h-3.17l-5.7-10L416.42,34.36z"/>
			<path d="M448.45,23.96h13.53v2.37h-10.73v6.83h9.06v2.37h-9.06v7.93h11.06v2.37h-13.86V23.96z"/>
			<path d="M469.11,23.96h2.77v19.5h10.8v2.37h-13.56V23.96z"/>
			<path d="M488.44,23.96h13.53v2.37h-10.73v6.83h9.06v2.37h-9.06v7.93h11.06v2.37h-13.86V23.96z"/>
			<path d="M507.04,23.96h3.4l3.07,9.33l1.07,3.53h0.13l1.03-3.53l3.1-9.33h3.4v21.86h-2.67V34.89c0-2.13,0.33-5.87,0.47-7.73h-0.1
				l-1.23,4.27l-3.13,8.6h-2l-3.07-8.6l-1.27-4.27h-0.07c0.2,1.87,0.47,5.6,0.47,7.73v10.93h-2.6V23.96z"/>
			<path d="M528.44,23.96h13.53v2.37h-10.73v6.83h9.06v2.37h-9.06v7.93h11.06v2.37h-13.86V23.96z"/>
			<path d="M547.37,23.96h3.07l7,13.73l2.1,4.53h0.07c-0.1-2.17-0.37-4.63-0.37-6.93V23.96h2.67v21.86h-3.07l-7-13.73l-2.1-4.53
				h-0.07c0.1,2.23,0.37,4.57,0.37,6.83v11.43h-2.67V23.96z"/>
			<path d="M573.23,26.33H566v-2.37h17.26v2.37h-7.23v19.5h-2.8V26.33z"/>
			<path d="M606.79,34.89c0-7.03,4.1-11.33,9.8-11.33c2.63,0,4.7,1.27,6,2.67l-1.6,1.77c-1.13-1.2-2.57-1.97-4.4-1.97
				c-4.17,0-6.9,3.37-6.9,8.8c0,5.5,2.73,8.93,6.9,8.93c2,0,3.53-0.87,4.9-2.4l1.6,1.7c-1.7,2-3.87,3.17-6.76,3.17
				C610.92,46.22,606.79,42.02,606.79,34.89z"/>
			<path d="M627.92,23.96h6.83c4.43,0,7.67,1.6,7.67,6.17c0,4.37-3.23,6.46-7.67,6.46h-4v9.23h-2.83V23.96z M634.35,34.33
				c3.4,0,5.27-1.4,5.27-4.2c0-2.87-1.87-3.9-5.27-3.9h-3.6v8.1H634.35z M636.38,34.36l6.67,11.46h-3.17l-5.7-10L636.38,34.36z"/>
			<path d="M648.42,23.96h13.53v2.37h-10.73v6.83h9.06v2.37h-9.06v7.93h11.06v2.37h-13.86V23.96z"/>
			<path d="M673.01,23.96h3.2l7.36,21.86h-3l-3.77-12.2c-0.77-2.43-1.5-4.83-2.17-7.36h-0.13c-0.7,2.53-1.4,4.93-2.17,7.36
				l-3.83,12.2h-2.87L673.01,23.96z M669.55,36.93h10.03v2.27h-10.03V36.93z"/>
			<path d="M693.21,26.33h-7.23v-2.37h17.26v2.37h-7.23v19.5h-2.8V26.33z"/>
			<path d="M707.77,43.46h5.43V26.33h-5.43v-2.37h13.66v2.37H716v17.13h5.43v2.37h-13.66V43.46z"/>
			<path d="M726.2,34.79c0-7.07,3.47-11.23,8.4-11.23c4.93,0,8.4,4.17,8.4,11.23c0,7.16-3.47,11.43-8.4,11.43
				C729.67,46.22,726.2,41.96,726.2,34.79z M740.1,34.79c0-5.5-2.2-8.76-5.5-8.76c-3.3,0-5.5,3.27-5.5,8.76c0,5.6,2.2,8.96,5.5,8.96
				C737.9,43.76,740.1,40.39,740.1,34.79z"/>
			<path d="M747.33,23.96h3.07l7,13.73l2.1,4.53h0.07c-0.1-2.17-0.37-4.63-0.37-6.93V23.96h2.67v21.86h-3.07l-7-13.73l-2.1-4.53
				h-0.07c0.1,2.23,0.37,4.57,0.37,6.83v11.43h-2.67V23.96z"/>
			<path d="M766.83,42.99l1.67-1.93c1.67,1.63,3.93,2.7,6.4,2.7c3,0,4.73-1.43,4.73-3.43c0-2.33-1.7-3-3.9-3.93l-3.17-1.4
				c-2.17-0.87-4.7-2.4-4.7-5.63c0-3.33,3-5.8,7.17-5.8c2.73,0,5.13,1.1,6.73,2.7l-1.47,1.8c-1.43-1.27-3.1-2.03-5.37-2.03
				c-2.53,0-4.23,1.2-4.23,3.17c0,2.1,2.03,2.87,3.9,3.6l3.07,1.37c2.7,1.07,4.83,2.6,4.83,5.83c0,3.47-2.93,6.23-7.73,6.23
				C771.56,46.22,768.8,44.96,766.83,42.99z"/>
			<path d="M493.04,63.96h3.2l7.36,21.86h-3l-3.77-12.2c-0.77-2.43-1.5-4.83-2.17-7.36h-0.13c-0.7,2.53-1.4,4.93-2.17,7.36
				l-3.83,12.2h-2.87L493.04,63.96z M489.58,76.92h10.03v2.27h-10.03V76.92z"/>
			<path d="M509.11,63.96h2.77v19.5h10.8v2.37h-13.56V63.96z"/>
			<path d="M528.04,63.96h6.6c4.83,0,8.1,1.63,8.1,6.43c0,4.63-3.3,6.76-8.1,6.76h-3.8v8.67h-2.8V63.96z M534.3,74.89
				c3.8,0,5.63-1.4,5.63-4.5c0-3.13-1.87-4.17-5.63-4.17h-3.47v8.66H534.3z"/>
			<path d="M547.27,63.96h2.83v9.13h9.06v-9.13H562v21.86h-2.83V75.55h-9.06v10.26h-2.83V63.96z"/>
			<path d="M573.03,63.96h3.2l7.37,21.86h-3l-3.77-12.2c-0.77-2.43-1.5-4.83-2.17-7.36h-0.13c-0.7,2.53-1.4,4.93-2.17,7.36
				l-3.83,12.2h-2.87L573.03,63.96z M569.56,76.92h10.03v2.27h-10.03V76.92z"/>
			<path d="M587.93,63.96h6.2c4.47,0,7.5,1.5,7.5,5.33c0,2.17-1.23,4.1-3.83,4.77v0.13c3.2,0.5,5.07,2.23,5.07,5.23
				c0,4.3-3.33,6.4-8.23,6.4h-6.7V63.96z M593.66,73.15c3.73,0,5.23-1.2,5.23-3.63c0-2.37-1.73-3.23-5.1-3.23h-3.1v6.87H593.66z
				 M594.23,83.48c3.73,0,5.9-1.23,5.9-4.2c0-2.7-2.07-3.8-5.9-3.8h-3.53v8H594.23z"/>
			<path d="M608.42,63.96h13.53v2.37h-10.73v6.83h9.06v2.37h-9.06v7.93h11.06v2.37h-13.86V63.96z"/>
			<path d="M633.22,66.32h-7.23v-2.37h17.26v2.37h-7.23v19.5h-2.8V66.32z"/>
		</g>
	</g>
	<g>
		<g>
			<circle class="st1" cx="564.57" cy="238.63" r="82.16"/>
			<g>
				<g>
					<g>
						<line class="st2" x1="564.57" y1="159.15" x2="564.57" y2="318.1"/>
					</g>
					<g>
						<line class="st2" x1="488.99" y1="214.07" x2="640.16" y2="263.19"/>
					</g>
					<g>
						<line class="st2" x1="517.86" y1="302.92" x2="611.29" y2="174.33"/>
					</g>
					<g>
						<line class="st2" x1="611.29" y1="302.92" x2="517.86" y2="174.33"/>
					</g>
					<g>
						<line class="st2" x1="640.16" y1="214.07" x2="488.99" y2="263.19"/>
					</g>
				</g>
			</g>
		</g>
		<g>
			<polygon class="st3" points="512.73,309.61 616.03,309.87 648.2,211.72 564.79,150.79 481.06,211.29 			"/>
		</g>
		<g>
			<circle class="st4" cx="603.68" cy="225.64" r="10.13"/>
			<circle class="st4" cx="564.62" cy="197.19" r="10.13"/>
			<circle class="st4" cx="588.53" cy="271.47" r="10.13"/>
			<circle class="st4" cx="525.47" cy="225.64" r="10.13"/>
			<circle class="st4" cx="540.37" cy="271.23" r="10.13"/>
			<polygon class="st5" points="564.62,197.19 525.57,225.56 540.48,271.47 588.76,271.47 603.68,225.56 			"/>
		</g>
	</g>
	<g>
		<g>
			<polygon class="st3" points="512.73,619.61 616.03,619.87 648.2,521.71 564.79,460.78 481.06,521.29 			"/>
		</g>
		<circle class="st4" cx="603.68" cy="535.64" r="10.13"/>
		<circle class="st4" cx="564.62" cy="507.18" r="10.13"/>
		<circle class="st4" cx="588.53" cy="581.47" r="10.13"/>
		<circle class="st4" cx="525.47" cy="535.64" r="10.13"/>
		<circle class="st4" cx="540.37" cy="581.22" r="10.13"/>
	</g>
	<g>
		<g>
			<g>
				<polygon class="st3" points="323.6,918.69 426.89,918.96 459.06,820.8 375.65,759.87 291.93,820.37 				"/>
			</g>
			<circle class="st4" cx="399.4" cy="880.56" r="10.13"/>
			<circle class="st4" cx="351.24" cy="880.31" r="10.13"/>
		</g>
		<g>
			<g>
				<polygon class="st3" points="134.46,918.69 237.76,918.96 269.93,820.8 186.52,759.87 102.8,820.37 				"/>
			</g>
			<circle class="st4" cx="162.1" cy="880.31" r="10.13"/>
		</g>
		<g>
			<polygon class="st3" points="891,918.69 994.3,918.96 1026.47,820.8 943.06,759.87 859.33,820.37 			"/>
		</g>
		<circle class="st4" cx="942.89" cy="806.27" r="10.13"/>
		<circle class="st4" cx="966.8" cy="880.56" r="10.13"/>
		<circle class="st4" cx="918.64" cy="880.31" r="10.13"/>
		<g>
			<g>
				<polygon class="st3" points="701.87,918.69 805.16,918.96 837.33,820.8 753.92,759.87 670.2,820.37 				"/>
			</g>
			<circle class="st4" cx="792.81" cy="834.73" r="10.13"/>
			<circle class="st4" cx="777.67" cy="880.56" r="10.13"/>
			<circle class="st4" cx="714.61" cy="834.73" r="10.13"/>
			<circle class="st4" cx="729.5" cy="880.31" r="10.13"/>
		</g>
		<g>
			<g>
				<polygon class="st3" points="512.73,918.69 616.03,918.96 648.2,820.8 564.79,759.87 481.06,820.37 				"/>
			</g>
			<circle class="st4" cx="588.53" cy="880.56" r="10.13"/>
			<circle class="st4" cx="525.47" cy="834.73" r="10.13"/>
			<circle class="st4" cx="540.37" cy="880.31" r="10.13"/>
		</g>
	</g>
	<g>
		<g>
			<g>
				<polygon class="st3" points="323.6,1217.78 426.89,1218.04 459.06,1119.89 375.65,1058.96 291.93,1119.46 				"/>
			</g>
			<circle class="st4" cx="375.49" cy="1105.36" r="10.13"/>
			<circle class="st4" cx="336.34" cy="1133.81" r="10.13"/>
		</g>
		<g>
			<g>
				<polygon class="st3" points="134.46,1217.78 237.76,1218.04 269.93,1119.89 186.52,1058.96 102.8,1119.46 				"/>
			</g>
			<circle class="st4" cx="186.35" cy="1105.36" r="10.13"/>
		</g>
		<g>
			<polygon class="st3" points="891,1217.78 994.3,1218.04 1026.47,1119.89 943.06,1058.96 859.33,1119.46 			"/>
		</g>
		<circle class="st4" cx="942.89" cy="1105.36" r="10.13"/>
		<circle class="st4" cx="966.8" cy="1179.64" r="10.13"/>
		<circle class="st4" cx="903.74" cy="1133.81" r="10.13"/>

	
	</g>
	



	








</g>
</svg>
