<?xml version="1.0" encoding="UTF-8" standalone="no"?>
<!-- Created with Inkscape (http://www.inkscape.org/) -->

<svg
   version="1.1"
   id="svg1"
   width="736"
   height="736"
   viewBox="0 0 736 736"
   sodipodi:docname="Согревающие и насыщенные оттенки заката.jpg"
   xmlns:inkscape="http://www.inkscape.org/namespaces/inkscape"
   xmlns:sodipodi="http://sodipodi.sourceforge.net/DTD/sodipodi-0.dtd"
   xmlns="http://www.w3.org/2000/svg"
   xmlns:svg="http://www.w3.org/2000/svg">
  <defs
     id="defs1" />
  <sodipodi:namedview
     id="namedview1"
     pagecolor="#ffffff"
     bordercolor="#000000"
     borderopacity="0.25"
     inkscape:showpageshadow="2"
     inkscape:pageopacity="0.0"
     inkscape:pagecheckerboard="0"
     inkscape:deskcolor="#d1d1d1" />
  <g
     inkscape:groupmode="layer"
     inkscape:label="Image"
     id="g1">
    <path
       style="fill:#feed93;fill-opacity:1;stroke:#b4b4b4;stroke-width:0;stroke-dasharray:none"
       d="m 739.88285,-1.7357057 c 6.0012,1.2142047 10.00198,371.5466857 10.00198,371.5466857 L -15.26642,371.42993 -3.9308456,0.69270399 739.88285,-1.7357057"
       id="path5" />
    <path
       style="fill:#fdc169;fill-opacity:1;stroke:#b4b4b4;stroke-width:0;stroke-dasharray:none"
       d="M 1.2749291,339.9785 148.02469,332.13672 c 0,0 49.51034,11.93314 55.36884,11.93314 5.85852,0 109.03341,-10.56936 109.03341,-10.56936 l 148.09011,-7.33036 c 0,0 109.2382,2.72757 121.93164,4.09136 12.69345,1.36379 109.80501,-2.5571 109.80501,-2.5571 l 48.49544,1.70474 6.83493,173.88299 H 0.29851068 Z"
       id="path4"
       sodipodi:nodetypes="ccsccsccccc" />
    <path
       style="fill:#e07c48;fill-opacity:1;stroke:#b4b4b4;stroke-width:0;stroke-dasharray:none"
       d="m -3.338436,381.40356 83.571799,1.87521 97.879797,-4.77326 80.64516,-3.40947 23.71264,1.02283 22.13805,-1.36378 c 0,0 20.1613,9.0351 28.29084,8.86462 8.12955,-0.17047 70.8897,-3.92089 70.8897,-3.92089 l 39.34713,-6.13705 c 0,0 31.78449,7.06995 42.14522,9.37604 13.78618,3.06853 22.10564,-4.91245 34.77749,2.55711 4.6816,2.75962 17.70014,-2.61094 35.1796,2.04568 14.58804,3.88633 34.8799,-1.02284 42.35908,-0.51142 7.4792,0.51143 29.59158,-3.75041 49.75287,-1.8752 20.16129,1.8752 27.31529,1.19331 46.82623,2.38663 19.51092,1.19331 51.05359,-2.21616 51.05359,-2.21616 l -3.90219,168.25736 -742.7159134,7.84178 z"
       id="path3"
       sodipodi:nodetypes="ccccccsccsssssscccc" />
    <path
       style="fill:#723932;fill-opacity:1;stroke:#b4b4b4;stroke-width:0;stroke-dasharray:none"
       d="m -10.230566,453.34339 c 0,0 76.105261,-16.70641 132.752736,-11.5922 5.92007,0.53447 126.41018,-5.28468 126.41018,-5.28468 0,0 82.95607,3.239 90.22115,4.26184 7.26506,1.02284 146.8123,8.3532 155.06807,11.5922 8.25575,3.239 135.20467,2.38663 142.46977,4.60278 7.26505,2.21616 89.16229,-5.96657 89.16229,-5.96657 l 24.76729,-0.17047 2.31162,186.6685 -172.05019,49.60779 -501.290173,-7.84178 -95.766895,-1.70473 z"
       id="path2"
       sodipodi:nodetypes="cscsssccccccc" />
    <path
       style="fill:#211c20;fill-opacity:1;stroke:#b4b4b4;stroke-width:0;stroke-dasharray:none"
       d="M -10.612329,542.90883 C 124.40556,528.58906 188.89115,512.2236 188.89115,512.2236 l 55.55178,42.27744 c 0,0 79.33487,-34.09471 126.40306,-9.20558 36.66686,19.38903 128.79135,18.0702 128.79135,18.0702 0,0 44.92394,13.80835 67.53617,13.80835 22.61222,0 135.6461,-31.70807 135.6461,-31.70807 l 48.82928,-14.8312 -7.53739,218.888 L -6.352056,747.818 Z"
       id="path1"
       sodipodi:nodetypes="cccscsccccc" />
  </g>
</svg>
